<?xml version="1.0" standalone="no"?>
<!DOCTYPE svg PUBLIC "-//W3C//DTD SVG 20010904//EN"
 "http://www.w3.org/TR/2001/REC-SVG-20010904/DTD/svg10.dtd">
<svg version="1.0" xmlns="http://www.w3.org/2000/svg"
 width="309.000000pt" height="163.000000pt" viewBox="0 0 309.000000 163.000000"
 preserveAspectRatio="xMidYMid meet">

<g transform="translate(0.000000,163.000000) scale(0.100000,-0.100000)"
fill="#000000" stroke="none">
<path d="M0 815 l0 -815 1545 0 1545 0 0 815 0 815 -1545 0 -1545 0 0 -815z
m1500 508 l0 -93 -120 0 -120 0 0 -185 0 -185 -100 0 -100 0 0 185 0 185 -125
0 c-69 0 -125 -4 -125 -8 0 -4 16 -24 36 -43 44 -41 74 -102 74 -149 0 -50
-32 -113 -71 -141 -34 -24 -35 -24 -337 -27 l-303 -3 3 98 3 98 90 2 c50 1
151 2 225 2 l134 1 -36 38 c-90 94 -97 194 -19 265 58 52 55 52 539 52 l352 0
0 -92z m397 84 c2 -3 40 -121 84 -263 43 -143 81 -265 84 -271 3 -10 -20 -13
-99 -13 l-103 0 -12 40 -12 40 -93 0 -93 0 -12 -40 -12 -40 -105 0 c-81 0
-105 3 -101 13 2 6 40 130 83 274 l79 262 45 3 c61 4 261 0 267 -5z m680 -18
c114 -55 133 -204 37 -288 -19 -17 -34 -33 -34 -36 0 -3 68 -5 150 -5 l150 0
0 -100 0 -100 -184 0 c-105 0 -197 5 -213 11 -15 5 -58 40 -95 77 l-68 66 0
-77 0 -77 -110 0 -110 0 0 274 0 275 23 3 c12 2 109 2 216 1 175 -2 198 -4
238 -24z m-2122 -631 c10 -35 21 -66 25 -71 3 -4 14 25 24 63 l19 71 115 -3
115 -3 19 -55 c10 -30 21 -62 24 -70 3 -9 15 14 28 55 l22 70 102 3 c88 2 102
1 102 -13 0 -9 -24 -96 -54 -193 -30 -97 -66 -217 -80 -265 l-27 -88 -96 3
-96 3 -30 102 -31 102 -32 -102 -32 -102 -95 -3 -96 -3 -26 88 c-15 48 -51
167 -81 263 -30 96 -57 183 -60 193 -5 15 5 17 109 17 l114 0 18 -62z m1014
30 c5 -18 42 -136 81 -263 39 -126 73 -238 76 -248 5 -16 -2 -17 -97 -15
l-102 3 -12 35 -12 35 -95 3 -95 3 -12 -41 -12 -40 -104 0 c-79 0 -103 3 -100
13 2 6 34 111 71 232 36 121 73 241 80 268 l15 47 154 0 153 0 11 -32z m675 7
c118 -60 141 -206 45 -288 -21 -19 -39 -37 -39 -40 0 -4 70 -7 156 -7 l156 0
-41 46 c-75 85 -87 162 -38 235 45 68 69 74 295 77 l203 3 -3 -93 -3 -93 -138
0 c-75 0 -137 -1 -137 -2 0 -1 23 -28 50 -59 28 -32 55 -74 60 -96 19 -69 -10
-145 -73 -192 -27 -20 -43 -21 -275 -24 -136 -2 -262 0 -281 3 -25 5 -56 27
-108 77 l-73 71 0 -76 0 -77 -115 0 -115 0 0 273 c0 151 3 277 7 281 4 4 102
6 218 4 187 -3 214 -5 249 -23z"/>
<path d="M1723 1160 l-21 -70 44 0 c24 0 44 4 44 8 0 10 -41 132 -44 132 -2 0
-12 -31 -23 -70z"/>
<path d="M2330 1224 l0 -34 69 0 c52 0 70 4 75 15 9 25 -5 45 -33 46 -14 0
-45 2 -68 4 -43 3 -43 3 -43 -31z"/>
<path d="M1288 570 c-10 -32 -18 -64 -18 -70 0 -5 18 -10 40 -10 22 0 40 5 40
10 0 18 -35 130 -40 130 -3 0 -13 -27 -22 -60z"/>
<path d="M1900 625 l0 -35 64 0 c71 0 99 17 79 48 -7 13 -28 18 -77 20 l-66 3
0 -36z"/>
</g>
</svg>
